<svg xmlns="http://www.w3.org/2000/svg" viewBox="0 0 500 300" width="500" height="300">
  <!-- Shelves -->
  <rect x="50" y="80" width="400" height="10" fill="#ccc"/>
  <rect x="50" y="150" width="400" height="10" fill="#ccc"/>
  <rect x="50" y="220" width="400" height="10" fill="#ccc"/>

  <!-- Boxes on top shelf -->
  <rect x="70" y="40" width="60" height="40" fill="#ffcc80" stroke="#e0a24d" stroke-width="2"/>
  <rect x="140" y="40" width="60" height="40" fill="#90caf9" stroke="#42a5f5" stroke-width="2"/>
  <rect x="210" y="40" width="60" height="40" fill="#a5d6a7" stroke="#66bb6a" stroke-width="2"/>

  <!-- Boxes on middle shelf -->
  <rect x="90" y="110" width="50" height="40" fill="#ef9a9a" stroke="#e57373" stroke-width="2"/>
  <rect x="160" y="110" width="50" height="40" fill="#ce93d8" stroke="#ab47bc" stroke-width="2"/>
  <rect x="230" y="110" width="50" height="40" fill="#fff176" stroke="#fbc02d" stroke-width="2"/>

  <!-- Boxes on bottom shelf -->
  <rect x="110" y="180" width="70" height="40" fill="#4dd0e1" stroke="#26c6da" stroke-width="2"/>
  <rect x="200" y="180" width="70" height="40" fill="#aed581" stroke="#9ccc65" stroke-width="2"/>

  <!-- Clipboard -->
  <rect x="320" y="110" width="100" height="140" rx="5" fill="#fff" stroke="#bbb" stroke-width="2"/>
  <rect x="350" y="120" width="40" height="10" fill="#eee"/>
  <rect x="330" y="140" width="60" height="8" fill="#90caf9"/>
  <rect x="330" y="160" width="60" height="8" fill="#a5d6a7"/>
  <rect x="330" y="180" width="60" height="8" fill="#ffcc80"/>

  <!-- Barcode Scanner -->
  <rect x="360" y="70" width="30" height="20" fill="#b0bec5"/>
  <circle cx="375" cy="70" r="5" fill="#90a4ae"/>
</svg>
