<svg xmlns="http://www.w3.org/2000/svg" viewBox="0 0 500 300" width="500" height="300">
    <!-- Van Body -->
    <path d="M100 180 L380 180 L420 140 L420 100 L300 100 L260 80 L100 80 Z" fill="#90caf9" stroke="#42a5f5" stroke-width="2"/>
    
    <!-- Roof -->
    <path d="M100 80 L260 80 L300 100 L100 100 Z" fill="#64b5f6"/>
    
    <!-- Windows -->
    <rect x="120" y="100" width="60" height="40" fill="#bbdefb" stroke="#64b5f6" stroke-width="1"/>
    <rect x="190" y="100" width="60" height="40" fill="#bbdefb" stroke="#64b5f6" stroke-width="1"/>
    <polygon points="260,100 300,100 300,140 260,140" fill="#bbdefb" stroke="#64b5f6" stroke-width="1"/>
    
    <!-- Side Panel Detail -->
    <rect x="120" y="145" width="250" height="20" fill="#64b5f6" opacity="0.5"/>
    
    <!-- Wheels -->
    <circle cx="150" cy="180" r="20" fill="#424242"/>
    <circle cx="150" cy="180" r="10" fill="#757575"/>
    <circle cx="350" cy="180" r="20" fill="#424242"/>
    <circle cx="350" cy="180" r="10" fill="#757575"/>
    
    <!-- Front Bumper -->
    <rect x="380" y="170" width="20" height="10" fill="#90a4ae"/>
    
    <!-- Headlights -->
    <circle cx="420" cy="120" r="6" fill="#fff59d" stroke="#fdd835" stroke-width="1"/>
    <circle cx="420" cy="140" r="6" fill="#fff59d" stroke="#fdd835" stroke-width="1"/>
  
    <!-- Shadow under Van -->
    <ellipse cx="250" cy="200" rx="180" ry="20" fill="#000" opacity="0.1"/>
  </svg>
  